<svg xmlns="http://www.w3.org/2000/svg" id="Components" viewBox="0 0 11.81 2.94"><defs fill="#000000fff"><style>      .cls-1 {        fill: #000000;        stroke-width: 0px;      }    </style></defs><circle class="cls-1" cx="1.63" cy=".33" r=".33" fill="#000000fff"></circle><circle class="cls-1" cx=".65" cy=".33" r=".33" fill="#000000fff"></circle><circle class="cls-1" cx="2.61" cy=".33" r=".33" fill="#000000fff"></circle><path class="cls-1" d="M3.22.94c-.02-.07-.08-.13-.16-.13h-.94c-.09,0-.16.07-.16.16v.98c0,.18-.15.33-.33.33s-.33-.15-.33-.33v-.98c0-.09-.07-.16-.16-.16H.2c-.08,0-.14.05-.16.13h0c-.03.12-.04.24-.04.36,0,.9.73,1.63,1.63,1.63s1.63-.73,1.63-1.63c0-.12-.01-.24-.04-.36" fill="#000000fff"></path><path class="cls-1" d="M4.98.82h.68v1.63h-.68v-.12l.02-.17h0c-.11.22-.3.33-.55.33-.38,0-.61-.19-.61-.67V.82h.68v.94c0,.17.07.26.22.26.18,0,.26-.14.26-.31v-.88Z" fill="#000000fff"></path><path class="cls-1" d="M5.94,2.45V.34h.68v2.1h-.68Z" fill="#000000fff"></path><path class="cls-1" d="M8.75,1.6v.08c0,.53-.21.82-.64.82-.23,0-.43-.1-.53-.32h0v.18s.01.58.01.58h-.68V.82h.68v.26s0,0,0,0c.1-.21.31-.32.53-.32.44,0,.64.29.64.83ZM8.07,1.54c0-.16-.06-.3-.24-.3s-.25.12-.25.29v.2c0,.17.06.29.25.29s.24-.14.24-.31v-.17Z" fill="#000000fff"></path><path class="cls-1" d="M8.93.41c0-.18.12-.26.38-.26s.38.08.38.26-.11.26-.38.26-.38-.08-.38-.26ZM8.97,2.45V.82h.68v1.63h-.68Z" fill="#000000fff"></path><path class="cls-1" d="M9.93,2.45V.34h.68v1.02h.16l.24-.55h.74l-.4.79.46.85h-.76l-.28-.62h-.16v.62h-.68Z" fill="#000000fff"></path></svg>